<svg width="24" height="24" viewBox="0 0 24 24" fill="none" xmlns="http://www.w3.org/2000/svg">
<path fill-rule="evenodd" clip-rule="evenodd" d="M5.00045 11.2554L3.68445 9.77137C3.39887 9.44932 3.3514 8.98066 3.56662 8.60789L4.84583 6.39213C5.06104 6.01937 5.49064 5.82615 5.91232 5.91243L7.85561 6.31006L9.14529 5.56543L9.77252 3.68377C9.90864 3.27543 10.2908 3 10.7212 3H13.2797C13.7101 3 14.0923 3.27543 14.2284 3.68377L14.8556 5.56543L16.1453 6.31006L18.0886 5.91243C18.5103 5.82615 18.9399 6.01937 19.1551 6.39213L20.4343 8.60785C20.6495 8.98062 20.602 9.44929 20.3165 9.77133L19.0005 11.2554V12.7446L20.3165 14.2286C20.602 14.5507 20.6495 15.0193 20.4343 15.3921L19.155 17.6078C18.9398 17.9806 18.5102 18.1738 18.0886 18.0875L16.1452 17.6899L14.8556 18.4344L14.2283 20.3162C14.0922 20.7245 13.7101 21 13.2797 21H10.7212C10.2908 21 9.90864 20.7246 9.77253 20.3162L9.14529 18.4345L7.85567 17.6899L5.91231 18.0876C5.49063 18.1739 5.06104 17.9806 4.84583 17.6079L3.56659 15.3921C3.35138 15.0194 3.39886 14.5507 3.68445 14.2287L5.00045 12.7446V11.2554Z" stroke="#979797" stroke-width="1.5" stroke-linecap="round" stroke-linejoin="round"/>
<circle cx="12" cy="12" r="3" stroke="#979797" stroke-width="1.5" stroke-linecap="round" stroke-linejoin="round"/>
</svg>
